<svg xmlns="http://www.w3.org/2000/svg" viewBox="0 0 16 16"><title>save</title><g id="Layer_2" data-name="Layer 2"><g id="Layer_2-2" data-name="Layer 2"><path d="M15.6,16a.4.4,0,0,0,.4-.4V3.74a.41.41,0,0,0-.14-.31L12,.09h0l0,0,0,0h0l0,0H.4A.4.4,0,0,0,0,.4V15.59A.4.4,0,0,0,.4,16H15.6Zm-2.94-.81H3.34V9.12a.21.21,0,0,1,.22-.21h8.88a.21.21,0,0,1,.22.21ZM5.33.8h5.95V5a0,0,0,0,1,0,0H5.38a.05.05,0,0,1,0,0V.8ZM.81.8H4.52V5a.86.86,0,0,0,.86.85h5.86A.85.85,0,0,0,12.09,5V1.27l3.1,2.66V15.18H13.46V9.12a1,1,0,0,0-1-1H3.56a1,1,0,0,0-1,1v6.07H.81Z" style="fill:#fff"/><path d="M7.49,2.55H9.26V3.63a.41.41,0,0,0,.81,0V2.15a.4.4,0,0,0-.41-.4H7.49a.4.4,0,1,0,0,.8Z" style="fill:#fff"/><path d="M10,10.63H6a.41.41,0,1,0,0,.81h4a.41.41,0,1,0,0-.81Z" style="fill:#fff"/><path d="M10,12.76H6a.41.41,0,1,0,0,.81h4a.41.41,0,1,0,0-.81Z" style="fill:#fff"/></g></g></svg>